<svg width="128" height="128" viewBox="0 0 128 128" xmlns="http://www.w3.org/2000/svg">
  <!-- Paddock Logo — Favicon / App Icon -->
  <!-- Background: use #0c0c0c behind this or add a rect -->

  <!-- Background rounded -->
  <rect x="0" y="0" width="128" height="128" rx="28" fill="#0c0c0c"/>

  <!-- Circuit -->
  <g transform="translate(22, 12) scale(0.45)">
    <path fill="none" stroke="#D4A843" stroke-width="5" stroke-linecap="round" stroke-linejoin="round" opacity="0.08"
      d="M50,120 L50,55 Q50,20 85,20 L140,20 Q180,20 195,45 Q210,70 195,95 L150,130 Q135,143 135,165 L135,185 Q135,210 110,210 L75,210 Q50,210 50,185 Z"/>
    <path fill="none" stroke="#D4A843" stroke-width="3.5" stroke-linecap="round" stroke-linejoin="round"
      d="M50,120 L50,55 Q50,20 85,20 L140,20 Q180,20 195,45 Q210,70 195,95 L150,130 Q135,143 135,165 L135,185 Q135,210 110,210 L75,210 Q50,210 50,185 Z"/>
    <line x1="38" y1="118" x2="62" y2="118" stroke="#D4A843" stroke-width="1.8" opacity="0.5"/>
    <line x1="38" y1="123" x2="62" y2="123" stroke="#D4A843" stroke-width="1.8" opacity="0.5"/>
    <circle cx="195" cy="70" r="5" fill="#D4A843" opacity="0.8"/>
    <circle cx="120" cy="20" r="7" fill="#D4A843" opacity="0.95"/>
  </g>
</svg>
