<svg width="260" height="230" viewBox="0 0 260 230" xmlns="http://www.w3.org/2000/svg">
  <!-- Paddock Logo — Symbol Only -->
  <!-- Background: transparent. Place on dark background (#0c0c0c) for best result -->

  <!-- Track shadow -->
  <path fill="none" stroke="#D4A843" stroke-width="8" stroke-linecap="round" stroke-linejoin="round" opacity="0.06"
    d="M50,120 L50,55 Q50,20 85,20 L140,20 Q180,20 195,45 Q210,70 195,95 L150,130 Q135,143 135,165 L135,185 Q135,210 110,210 L75,210 Q50,210 50,185 Z"/>

  <!-- Track outline -->
  <path fill="none" stroke="#D4A843" stroke-width="2" stroke-linecap="round" stroke-linejoin="round"
    d="M50,120 L50,55 Q50,20 85,20 L140,20 Q180,20 195,45 Q210,70 195,95 L150,130 Q135,143 135,165 L135,185 Q135,210 110,210 L75,210 Q50,210 50,185 Z"/>

  <!-- Start/finish lines -->
  <line x1="40" y1="118" x2="60" y2="118" stroke="#D4A843" stroke-width="1" opacity="0.5"/>
  <line x1="40" y1="122" x2="60" y2="122" stroke="#D4A843" stroke-width="1" opacity="0.5"/>

  <!-- Apex markers -->
  <circle cx="195" cy="70" r="3" fill="#D4A843" opacity="0.8"/>
  <circle cx="135" cy="155" r="2" fill="#D4A843" opacity="0.5"/>
  <circle cx="50" cy="40" r="2" fill="#D4A843" opacity="0.5"/>

  <!-- Position dot -->
  <circle cx="120" cy="20" r="4.5" fill="#D4A843" opacity="0.95"/>
  <circle cx="120" cy="20" r="8" fill="none" stroke="#D4A843" stroke-width="0.6" opacity="0.35"/>
</svg>
