<?xml version="1.0"?><svg version="1.1" id="Calque_1" xmlns="http://www.w3.org/2000/svg" xmlns:xlink="http://www.w3.org/1999/xlink" x="0px" y="0px" viewBox="0 0 193.5 164.1" style="enable-background:new 0 0 193.5 164.1;" xml:space="preserve">

<g id="_1_1_">
&#x9;<polygon fill="#ffffff" points="129.6,71.7 124.4,68.7 118.7,74.3 113.1,68.7 107.9,71.7 114.7,78.4 107.9,85.2 113.1,88.2    118.7,82.5 124.4,88.2 129.6,85.2 122.8,78.4  "></polygon>
&#x9;<path fill="#ffffff" d="M151.8,46.9H104l-0.3,1.3l-2.5,10.1l-0.1,0.2h39.1V101H99.2c-3.7,6.4-10.5,10.6-19,11.5h71.6V46.9z"></path>
&#x9;<path fill="#ffffff" d="M50,100.9l-2.3-2.7l2.6-2.5l3.9-3.7V47.2H42.8l-0.2,15.3v50.1h29.7C63.7,111.9,55.6,107.7,50,100.9z"></path>
&#x9;<path fill="#f1ab00" d="M80,59.3c0.2-0.2,0.5-0.4,0.8-0.5c0.1-0.1,0.2-0.1,0.1-0.2c-0.5,0.2-1,0.4-1.4,0.7C79.9,59.2,80,59.3,80,59.3z   "></path>
&#x9;<path fill="#f1ab00" d="M87.9,50.3c-1,0.1-1.9,0.1-2.9,0c-0.6-0.2-2.1,0-2.9-0.1c0,0-0.2-0.1-1.3,0.1c-0.2,0-0.3-0.1-0.5-0.1   c-0.1,0.2-1,0.4,0.6,0.4l1.2-0.1c1.3,0,2.9,0,4.1,0.1C86.8,50.6,87.4,50.5,87.9,50.3z"></path>
&#x9;<path fill="#f1ab00" d="M79.2,50.2c-0.4,0-0.8,0-1.1,0c0,0.1-0.2,0.2-0.5,0.4c0.2,0,0.3,0,0.9-0.2C78.8,50.3,78.9,50.2,79.2,50.2z"></path>
&#x9;<path fill="#f1ab00" d="M83.1,58.7C83.3,58.7,83.2,58.7,83.1,58.7C83.4,58.7,83.6,58.7,83.1,58.7z"></path>
&#x9;<path fill="#f1ab00" d="M84.3,59.3c0-0.1,0.2-0.2,0.4-0.4l-1.6,0.5c-0.5,0.3-0.2,0.3,0.1,0.4s0.4-0.1,0.2,0.1c0.1,0,0.1,0.1,0,0.1   C83.8,59.7,84.3,59.5,84.3,59.3z"></path>
&#x9;<path fill="#f1ab00" d="M73.5,81.1h-0.1l0.1,0.1c0,0,0.1,0,0.1,0s0.1,0.1,0.1,0S73.5,81.1,73.5,81.1z"></path>
&#x9;<path fill="#f1ab00" d="M82,74.4c0.2,0,0.3,0,0.5,0.1c0,0,0-0.1,0-0.1h-0.1L82,74.4c-0.1-0.1-0.2-0.1-0.3-0.1c0,0,0,0,0-0.1v-0.1   l-0.2,0.1c0.3,0.1,0.2,0.2,0.2,0.2c-0.1,0-0.2,0-0.2-0.1c0-0.1,0-0.1,0-0.1c-0.1,0-0.3,0.1-0.4,0.1c-0.1,0-0.3,0-0.4,0.1   c-0.1,0.1-0.2,0.1-0.3,0.2c-0.1,0.1,0.1,0,0.1,0.1h0.2h0.1H81c0.2,0,0.3,0.1,0.5,0.1c0,0,0,0,0.2,0s0,0,0,0l0,0   c-0.1,0-0.2-0.1-0.3-0.1c-0.1,0-0.3,0-0.4-0.1l0,0l0.1,0.1c0,0,0,0-0.2-0.1c0,0,0,0-0.1,0l-0.2-0.1c0.1,0,0.1,0.1,0.2,0.1l0,0   c0.3-0.1,0.7-0.1,1-0.1L82,74.4z"></path>
&#x9;<path fill="#f1ab00" d="M73.1,81.1L73.1,81.1L73.1,81.1L73.1,81.1z"></path>
&#x9;<path fill="#f1ab00" d="M74,81.4C74,81.4,74.1,81.4,74,81.4L74,81.4L74,81.4C74,81.4,74,81.4,74,81.4z"></path>
&#x9;<path fill="#f1ab00" d="M54.1,57v0.3c0.2-0.1,0.4-0.2,0.6-0.3C54.7,57,54.5,56.9,54.1,57z"></path>
&#x9;<path fill="#f1ab00" d="M75.8,59.7c-0.1-0.1-0.2-0.1-0.4-0.1C75.5,59.7,75.6,59.7,75.8,59.7z"></path>
&#x9;<path fill="#f1ab00" d="M54.7,57.5c-0.2,0-0.4-0.1-0.6-0.1v0.2c0.2,0,0.5,0,1,0C54.9,57.6,54.8,57.6,54.7,57.5z"></path>
&#x9;<path fill="#f1ab00" d="M55.5,56.4c0,0.1,0.1,0.2,0.1,0.2c0.2-0.1,0.3-0.2,0.3-0.4c0-0.1,0-0.2-0.1-0.1c-0.3,0.1-0.6,0.1-1,0.1   c-0.3,0-0.6,0-0.9,0v0.3l0.6-0.1C54.9,56.3,55.3,56.3,55.5,56.4z"></path>
&#x9;<path fill="#f1ab00" d="M58.2,59l0.6-0.1c-0.1-0.1,0-0.2,0.9-0.5c0.2-0.1,0.4-0.1,0.6-0.2c-0.3-0.1-0.7,0-1,0.2   c-0.4,0.1-0.5,0-0.5-0.1s0.2-0.3,0.3-0.3c-0.2,0.1-0.3,0.2-0.5,0.2c0.1,0,0.1,0,0.1,0.2c-0.2,0.2-0.4,0.3-0.6,0.3   C58.3,58.7,58.4,58.8,58.2,59z"></path>
&#x9;<path fill="#f1ab00" d="M54.1,48.5c0.2-0.2,0.4-0.4,0.5-0.6c0.4-0.1,0.8-0.2,1.2-0.2c0,0,0,0.1,0,0.4c0.1,0.1-0.2,0.2-0.3,0.4   c-0.3,0.2-0.7,0.3-1,0.3c0-0.1-0.3,0-0.5-0.1v0.3l0.4,0c-0.1,0.1-0.2,0.2-0.4,0.2v0.3c0.2,0,0.2,0.1,0.2,0.5c0.2,0,0.4,0,0.6,0.1   c0.4,0.1,0.8,0.1,1.2,0c0.4-0.1,0.8,0,1.1,0.1c0.3,0,0.7,0.1,1,0.1c0.6,0,1.1,0,1.7-0.2c-0.2,0-0.4,0,0.2-0.2   c0.3-0.2,0.6-0.3,0-0.4c-0.2,0-0.2-0.1,0.3-0.4c-0.2,0-0.2-0.1-0.2-0.2s0.5-0.3,0.9-0.5c-0.4,0-0.8,0.2-1.2,0.4l-0.6,0.2   c0.3,0,0.7,0,0.2,0.3l-0.5,0.2c-0.2,0.1-0.3,0.2-0.1,0.6c-0.3,0.1-0.5,0.1-0.8,0.1c-0.2,0-0.3,0,0-0.2c0.2-0.1,0.3-0.2-0.1-0.2   c0.2-0.2,0.1-0.3,0-0.4s0.3-0.3,0.2-0.4c-0.5,0.2-1,0.3-1.5,0.3c-0.2,0.1-0.1,0.2,0,0.3s0.1,0.2-0.1,0.4s-0.5,0.1-0.7,0.1   c-0.2-0.1,0-0.3,0.3-0.5c0-0.1,0.3-0.2,0.2-0.5c0.2-0.1,0.3-0.3,0.3-0.5c0,0,0-0.1,0.6-0.5c0-0.1,0.2-0.2,0.4-0.3   c0.2-0.1,0.3-0.2,0.4-0.3c0.1-0.1,0.1-0.2,0.7-0.4c0.2,0,0.4,0,1.1-0.1c0.3,0,0.4,0-0.4,0.6c-0.2,0,0-0.2,0-0.3   c-0.4-0.1-0.4-0.1-0.9,0.1c-0.3,0.1-0.6,0.3-0.8,0.5c0.2,0,0.4,0.1,0.6,0.1c0.5-0.2,0.7-0.1,0.5,0.2c0,0.1,0,0.2,0,0.4   c0.3-0.1,0.6-0.2,0.9-0.4c0.3-0.2,0.7-0.3,1-0.2c0.4-0.1,0.9-0.2,1.4-0.2c-0.1-0.1,0.3-0.2,0.2-0.3s0-0.3,0.3-0.6   c0.3-0.2,0.4-0.1,0.6-0.1s-0.3,0.2-0.3,0.5c0.1,0.1,0.2,0.1,0.6,0.2c-0.5,0.1-0.8,0.2-0.7,0.4c0.2,0,0.5,0,0.7,0   c0.5,0.2,1,0.1,1.4-0.1c0.1-0.1,0-0.2-0.3-0.2s-0.7,0-0.6-0.2c0.2,0,0.5,0,0.7,0c0.3,0.1,0.8,0,0.8,0.2s0.2,0.2,1,0.1   c-0.2-0.1-0.7-0.2-0.2-0.4c0.2-0.1,0-0.1-0.2-0.2c-0.3-0.1-0.3-0.2,1.2-0.3c0,0.1,0,0.1-0.6,0.5c0.3,0,0.6,0,0.9,0.1   c0,0.1,0.2,0.1,0.6,0c0.2-0.1,0.5-0.1,0.8,0c0.2,0.1,0.6,0.1,1.6,0c0.3-0.2,0.7-0.2,1,0c0,0,0,0,0.6,0.1c0.5,0.1,1,0.1,1.5,0   c0,0,0.1,0,0.4,0.1c0.4-0.1,0.8-0.1,1.2-0.1c0.2-0.1,0.4-0.1,0.5-0.2c0.4-0.1,0.4,0,0.4,0.3s0.3,0.1,0.7,0c0.1-0.1,0.3-0.1,0.4-0.2   c0.2,0,0.5-0.1,0.7-0.1h1.4c0,0,0-0.1,1.9-0.5c0.3,0,0.5,0,0.6,0.3c-0.3,0.1-0.5,0.2-0.8,0.3c0.6,0.1,1.9,0,2.6,0.1   c0.5-0.1,0.9-0.2,0.6-0.2S84,47,84.2,46.9c0.7,0,0.9,0.1,3.9,0c0.3,0,0.8,0-0.3,0.3c-0.2,0-0.4,0.1-2.2,0.3c0.4,0,0.8,0,1.2,0   c0.9,0,1.8-0.1,2.7-0.4c0.1,0,0.3-0.1,2.2-0.3c0.7-0.1,1.3-0.1-0.5,0.4c-1.1,0.2-0.9,0.3-0.6,0.4s1.1-0.1,1.3,0.2   c1.4,0,1.3,0-0.1,0.4h-3.5c-0.9,0-1.8,0.1-2.6,0.4c0.1,0.1-0.2,0.2-0.7,0.3c-0.4,0-0.8,0-1.2,0c-2.3,0.3-0.9-0.2-1.2-0.3   c-0.7,0-1,0.2-1.6,0.3c-0.3-0.1,0.4-0.2,0.3-0.2c-1,0.1-1.9,0.4-2.9,0.6c0.3-0.1,0.5-0.2,0.8-0.4c0.5-0.2,0.2-0.2-0.6-0.2   c-0.4,0-0.8,0.1-1.2,0.2c-0.2,0.1-0.2,0.2-0.2,0.3s-0.1,0.2-0.3,0.2c-0.4-0.2,0.2-0.4,0.4-0.6c-0.4,0.1-0.8,0.1-1.3,0   c-0.4-0.1-0.7-0.1-1.1,0.1c-0.3,0.1-0.6,0.2-0.9,0.2c-0.4,0-0.7,0-0.7-0.2c-0.6,0.1-0.6,0.3-1,0.5c-0.3-0.1-0.1-0.2,0-0.3   s0-0.2-0.5,0c0,0.1-0.1,0.2-0.6,0.1c0.3-0.3,0.3-0.3-0.5-0.3c-0.5,0.1-0.9,0.2-1.4,0.2c-0.7-0.1-1.3-0.1-2-0.1   c-0.2,0.1-0.4,0.2-0.5,0.4c-0.4,0.1-0.1-0.2-0.5-0.2c0.5-0.2,0.2-0.2,0-0.3c-0.3,0.1-0.6,0-0.8-0.1c0,0.1,0,0.1-0.1,0.2   c-0.1,0.1-0.3,0.3-0.4,0.4c1.3,0.2,2.6,0.3,3.9,0.1c0.6,0,1.3,0.2,1.9,0.4c0.9-0.1,1.7-0.1,2.6,0c0,0.1,0,0.2-0.1,0.2   c-0.4,0.3-0.1,0.3,0.5,0.3c0.7-0.1,1.4-0.1,2.1,0.1c0.3-0.1,0.6-0.2,0.3-0.3c-0.3,0.1-0.7,0.1-1-0.1c0.6-0.1,1.2-0.1,1.7,0   c0.5,0,1,0,1.6,0c0.7,0.1,1.7,0,2.5,0c0.3-0.2,0.7-0.3,1.1-0.3c0.2,0.1-0.1,0.2,0.5,0.4l0.5-0.3c0.7,0,0,0.2,0.3,0.3   c0.7,0,1.4,0,2.1,0c0.5-0.1,1-0.3,1.5-0.6c0.2-0.2,1-0.3,1-0.5c0.5-0.1,1-0.2,1.6-0.2c-1.3,0.3-1.3,0.3-0.3,0.4   c0.3,0,1.3-0.1,0.5,0.1c0.1,0.1-0.4,0.2-0.7,0.3c-0.2,0-0.4-0.1-0.7-0.1c-0.4,0.1-0.8,0.2-1.2,0.1c-0.6,0.2-0.4,0.2,0.1,0.2   c0.3,0,0.6,0,0.8,0c0.4,0.1,0.8-0.1,1.3-0.2c-0.1,0.1-1,0.3-1,0.4c0.6,0,1.2,0,2-0.1l2.6-0.6c0.4-0.1,0.8-0.1,1.2,0   c0.9-0.1,1-0.1,0.8,0.1c-0.6,0.2-1.2,0.3-1.8,0.4c0.1,0-0.1,0.1,1.1,0.2c-0.3,0.1-0.6,0.1-3.4,0.4c-0.1-0.1-0.5-0.1-1.6,0.1   c0.9,0,1.8,0.1,2.9,0c0.7,0,1.4,0,2.1-0.2c0.8-0.2,0.5-0.3,1.3-0.5c0.4-0.1,0.7-0.1,1.1-0.1c-0.2,0-0.2,0,0.2-0.2   c0.5-0.2,1-0.3,1.6-0.3c0.6,0,0.4,0.1-2.2,1.2c0.4,0,0.8-0.2,1.2-0.4c0.6-0.2,1.2-0.2,1.8-0.2c0.4,0,0.9,0,1.3,0   c0.1,0.1-0.7,0.2-0.9,0.3s0,0.1,2.2-0.1c-0.4,0.2-0.9,0.3-1.3,0.2c0,0.1-0.1,0.1,0.1,0.2c0.6-0.1,1-0.2,1.5-0.3l0.3-0.2l1.3-0.3   c0.4-0.1,0.8-0.2,1.2-0.2h0.9l-1.5,0.2c-0.1,0.1,0.3,0.1,0.6,0.1c-0.6,0.1-1.3,0.2-1.9,0.4c0.8-0.1,1.6-0.2,2.4-0.3   c-0.2,0.2-0.3,0.5-0.5,0.7c0.2-0.1,0.5-0.2,0,0.5c-0.5,0.5-1,1.1-1.9,2c-0.8,1-1.7,1.9-2.7,2.6c-0.7,1.1-1.9,2.2-2.1,1.9   s-1,0.4-2.2,1.6c-0.7,0.6-1.4,1.6-2.2,2.2c-0.6,0.5-1.1,1-1.6,1.5c-0.3,0.3-0.5,0.5-0.7,0.9c0.3-0.2,0.5-0.4,0.8-0.7   c0.3-0.4,0.4-0.5,0.6-0.4c0.5-0.5,0.9-0.7,1.6-1.3c-0.6,0.7-1.2,1.3-2.4,2.5c0,0.1,0.3,0,0.2,0.6l-0.1,0.5c0.4-0.5,0.7-1,1-1.5   c-0.1,0.3,0.3-0.1,0.5,0.1c-0.3,0.4-0.6,0.8-0.8,1.2c-0.1,0.1-0.2,0.2-0.4-0.1l-0.7,0.9c-0.3,0.7-0.7,1.3-1.2,1.8   c0.3-0.4,0.5-0.9,0.8-1.4c0-0.4,0.1-0.9,0.3-1.3c0.2-0.4,0-0.4-0.6-0.1c-0.2,0.3-0.4,0.6-0.6,0.6s-0.3,0.2-0.6,0.4l-0.9,1   c-0.5,0.7-1.1,1.4-1.8,1.9C86.9,69,86.8,69,87,68.6c0.3-0.3,0.6-0.6,0.8-0.9c0.1-0.2,0.1-0.3,0.8-1.2c-0.4,0.3-0.7,0.7-1,1.1   c-0.5,0.6-1,1.2-1.7,2.1c-0.3,0.4-0.2,0.5-0.5,0.8c-0.1,0.1-0.2,0.2-0.3,0.3C85,70.8,84.9,71,84.8,71s-0.2,0.1-0.3,0.3   c-0.1,0.3-0.3,0.6-0.6,0.9l0,0l-0.8,0.8c-0.2,0.2-0.5,0.4-0.7,0.6c0.2-0.1,0.4-0.3,0.6-0.5c0.4-0.3,0.8-0.6,1.2-0.9l0.8-0.7   c0.1-0.2,0.3-0.3,0.5-0.3c0.1,0,0.2-0.1,0.2-0.1c0.1-0.1,0.2-0.2,0.4-0.2c0.1,0,0.1-0.1,0.2-0.3c-0.1,0,0.2-0.4,0.3-0.6   c0.2-0.3,0.5-0.6,0.8-0.8c0.4-0.4,1-0.9,1.8-1.7c0.3-0.2,0.5-0.4,0.5-0.3c0.3-0.2,0.6-0.8,0.9-1s0.8-0.9,0.8-0.6   c-0.1,0.4-0.3,0.7-0.6,1c-0.2,0.3-0.3,0.6-0.5,0.9c0.2,0,0,0.2-0.3,0.6c-0.1,0.4-0.4,0.7-0.6,0.9c-0.4,0.4-0.7,0.7-1.1,1   s-0.7,0.8-0.5,0.4s0.2-0.3,0.1-0.8c0.2-0.4,0.4-0.8-0.1-0.4c-0.1,0.2-0.3,0.5-0.3,0.6s0.1,0-0.6,0.8l-0.2,0.2l-0.1,0.1   c-0.1,0.1-0.1,0.2-0.1,0.4L85.9,71c0,0-0.1,0-0.1,0.3c-0.1,0-0.1,0.1-0.1,0.4c0,0,0,0.1,0.2,0.2L85.8,72c-0.1,0-0.2,0-0.3-0.1   c-0.2,0-0.4,0.1-0.6,0.2l-0.1,0.1c-0.2,0.3-0.5,0.6-0.8,0.8c-0.1,0.1-0.2,0.2-0.3,0.3c0,0.2-0.2,0.4,0,0.4l0,0c0,0,0.1,0,0.4,0.1   c0,0,0.1,0.1,0.3,0.1s0.5,0,0.5,0.1s0.4,0.2,0.9,0.2c0-0.1-0.2-0.1-0.1-0.2l0.3,0.1c0,0,0.1,0,0.1,0h0.3l0.3-0.2c0.1,0,0.2,0,0.3,0   c0.1,0,0.1,0,0.4,0c-0.1,0.1-0.2,0.1-0.3,0.2c-0.2,0.1-0.3,0.2-0.5,0.2c-0.1,0-0.3,0.1-0.3-0.1c-0.1,0.1-0.3,0.1-0.5,0.1l0,0   c0.2,0.1,0.1,0.2,0.1,0.4s0,0.1-0.3,0.1c-0.2,0-0.4,0-0.6,0c-0.2,0-0.3-0.1-0.6-0.1c0,0-0.1,0.1,0.2,0.2c0.1,0,0.2,0,0.2,0.1   s0,0.1-0.1,0.1h-0.1c-0.2,0.1-0.3,0.1-0.5,0.2l0.1,0.1h0.1c0.2,0,0.3-0.1,0.3-0.1c0.2,0,0.4,0,0.5,0.2c0.2,0,0.4-0.1,0.6-0.1   c0,0.1-0.2,0.1,0,0.2c0.1,0,0.3,0.1,0.3,0.2c0.1,0.1,0.2,0,0.4,0.2c1.3,0.5,2.5,1.2,3.6,2.1l0.7,0.6c0.5,0.4,1.1,0.9,1.5,1.4   c0.2,0.3,0.8,0.8,1,1.2c-0.1-0.3,0.3-0.1,0.7,0.3c0-0.1-0.2-0.4-1.2-1.3c-0.2-0.1-0.4-0.2-0.6-0.4c-0.1-0.2,0.4,0.1,0.4,0   c-0.2-0.2-0.3-0.4-0.5-0.5c0.1,0,0.1-0.2,0.6,0.1c0.1,0,0.2,0.1,0.2-0.2c-0.4-0.5-0.9-0.9-1.4-1.3c0.3-0.1,0.7,0.4,1.1,0.8   c0.5,0.5,1,1,1.5,1.6c0.1,0.1,0.2,0.2,0.8,1.1c0.1,0.2,0.3,0.4,1,1.5c0.1,0.4,0.3,0.8,0.5,1.2c0.3,0.4,0.4,0.9,0.5,1.4   c0,0.4,0.2,1,0.3,1.9c0.1,0.3,0.1,0.7,0.2,1.2c0,0.3,0,0.5,0,0.9s0,0.9-0.1,1.5c0,0.3,0,0.7,0,1c0,0.3,0,0.6-0.1,0.9L97,93.7   c-0.1,0.5-0.1,0.9-0.2,1.3s-0.2,0.8-0.5,0.8c0,0.2-0.1,0.4-0.2,0.6c0,0.2,0,0.5,0,0.7c0,0.1,0,0.1-0.3,1.4   c-0.2,0.4-0.5,0.9-0.8,1.3c-0.2,0.2-0.4,0.4-0.5,0.6c-0.1,0.4-0.3,0.8-0.5,1.2c-0.4,0.8-0.8,1.2-1.5,2.3c-0.6,0.8-1.1,1.3-2,2.2   c-0.4,0.4-0.8,0.7-1.2,1.1c-0.5,0.3-0.3-0.1-0.6,0c-0.4,0.4-0.9,0.7-1.4,1c-0.4,0.3-0.8,0.5-1.4,1c-0.1,0.1-0.1,0.3-1,0.6   c-0.2,0-0.1,0,0.2-0.5l-1,0.3c-0.5,0.2-1,0.3-1.5,0.4c-0.5,0.1-1.1,0.2-1.6,0.2c-0.2,0.1-0.2,0.2-1.3,0.2c-0.4,0.1-0.9,0.2-1.3,0.2   c-0.5,0-1.1-0.1-1.6-0.1c-0.6,0.1-1.2,0.1-1.8,0c0-0.2,0.3-0.4-1-0.6c-0.5-0.1-0.9-0.2-1-0.3c0.1-0.1,0-0.2-0.5-0.3   c-0.6-0.1-1.2-0.3-1.7-0.5c-0.6-0.2-1.2-0.5-1.8-0.8c-0.9-0.4-2-0.8-3.8-1.8c-0.1-0.1-0.1-0.1-0.3-0.3c-0.6-0.3-1.2-0.7-1.8-1   c-0.5-0.4-1.1-0.7-1.8-0.8c-0.8-0.1-1.6-0.5-2.2-1c-0.5-0.3-0.8-0.3-1.6-0.7l-0.5-0.1c-0.3-0.1-0.7-0.3-1-0.4   c-0.2-0.1-0.3-0.3-0.5-0.5c-0.6-0.4-1.2-0.8-1.8-1.3c-0.1-0.2-0.2-0.4-0.2-0.6c0.5,0.3,1,0.5,1.5,0.7c-0.1-0.1,0-0.1,0.4,0.1   c-0.2-0.3,0.2-0.2-1.1-1.1c-0.4-0.3-0.8-0.6-1.1-1c0.2,0.1,0.4,0.2,0.5,0.4c0.3,0.1,0.6,0.2,0.8,0.4c0.2,0.2,0.5,0.2,0.8,0.2   c0.1,0,0.1-0.1,0.2-0.1l-0.4-0.4l-0.6-0.4c-0.4-0.2-0.7-0.5-0.9-0.8c-0.1-0.2-0.3-0.4-0.9-1.2c0-0.1-0.2-0.2-0.2-0.4   c0.1,0,0.2,0,0.5,0.3s0-0.2,0.1-0.4c-0.1-0.1-0.2-0.1-1.2-1c-0.1-0.2,0.1,0,0.2,0c0.2,0.2,0.5,0.5,0.7,0.7   c-0.1-0.2-0.5-0.5,0.4,0.2l0.5,0.3l0.8,0.7h0.2c0.4,0.3,0.9,0.6,1.3,0.9c0.1,0.1,0.2,0.2-0.1,0.2c0.2,0.2,0.3,0.3,0.8,0.7   c0.1,0,0.2,0.1,1.3,1c0.4,0.1,0.7,0.3,1,0.5l-0.7-0.6c-0.2-0.2-0.5-0.4-0.4-0.4s-0.3-0.5-0.8-0.9c-0.1,0-0.2,0-0.2,0.1   c-0.3-0.2-0.4-0.3-1.8-1.3c-0.2-0.2-0.3-0.3-0.5-0.4S54.6,96,54,95.4c0.1,0,0.1,0-0.3-0.4c0-0.1-0.5-0.6-0.2-0.6s0.3,0.2,0.5,0.1   s0-0.1,0.1-0.1s-0.2-0.3,1,0.4c0,0,0.2,0,0.7,0.3c0.8,0.2,1.6,0.5,2.2,0.9c-0.1-0.1,0.2,0,0.9,0.3c0.2,0.1,0.3,0.2,0.7,0.3   c-0.4-0.4-1.2-0.8-1.2-1.1s-0.2-0.2,0.7,0.3c0.3,0.2,0.5,0.4,0.8,0.6s0.3,0.2,0.5,0.4c0.5,0.3,0.5,0.5,0.8,0.7   c0.3,0.2,0.6,0.3,0.9,0.3c0.2,0.1,0.4,0.2,0.9,0.3l0.4,0.3c0,0.1-0.1,0-0.4,0.1c0,0-0.1,0-0.6-0.1c0.2,0.1,0.4,0.3,0.6,0.3h0.3   c0.2,0,0.3,0.1,0.5,0.1c0.2,0,0.1-0.1,0.6,0l0.5,0.1c0.2,0,0.3,0,0.4-0.1c-0.2-0.2-0.4-0.5-0.4-0.7c0.2,0,0.3,0,0.5,0.1   c0.3,0.1,0.8,0.3,0.2-0.1c-0.3-0.2,0.2-0.2-0.1-0.5c-0.6-0.5-1.3-0.9-2-1.3c-0.2,0-0.4-0.1-0.5-0.2c-0.2-0.1-0.4-0.3,0.2-0.3   c0.1,0.1,0.3,0.2,0.5,0.2c0,0,0-0.1-0.7-0.6c-0.3-0.2-0.5-0.4-0.5-0.4s0.2,0,0.6,0.1c0-0.1,0-0.1-0.2-0.4c0.1,0.1,0.2,0.1,0.5,0.3   c0.3,0.2,0.7,0.3,1,0.5c0.3,0.1-0.1-0.2-0.2-0.4c0.1-0.1,0.3,0,0.7,0.1c0.2,0.1,0.4,0.1,0.6,0.1c0.6,0.1,0.7,0.4,1.3,0.7   c0,0.1,0.2,0.2,0.8,0.6c0.1,0,0.2,0.1,0.7,0.2c0.2,0.1,0.2,0,0.5,0.1s0.6,0.2,0.8,0.2c0.7,0.1,1.3,0.3,1.9,0.5c0.2,0,0.4,0.1,1,0.3   c0.3,0-0.1-0.1-0.2-0.2c-0.2-0.2-0.1-0.1,2.4,0.4c0.2,0,0.3,0,0.5,0.1c0.5,0,0.8,0.3,1.3,0.3c0.2,0,0.4,0,0.6,0.1   c0.1,0.1,0.3,0.1,0.5,0.1c0.1,0,0.3,0,0.4,0.1c0.5,0.1,0.7,0.2,1.2,0.2c0.2,0,0.4,0,0.7,0c0.1-0.1,0.2,0,0.3-0.1s0.2-0.2,0.3-0.1   s0.2,0.1,0.7-0.1c0,0,0.1,0,0.2-0.1s0.1-0.3,0.3-0.3s0.2,0.4,0.6-0.2c0-0.1,0-0.2,0.2,0s0.2-0.2,0.3-0.1s0.2-0.2,0.3-0.3   c0.1-0.3,0.2-0.2,0.3-0.5s0.1-0.1,0.6-0.6c0.1,0,0.2-0.4,0.3-0.1c0,0.1-0.1,0.3,0.2,0c0.1-0.4,0.3-0.7,0.5-1   c-0.1-0.4-0.1-0.8,0-1.2c0,0,0.1,0,0.2,0c0.2-0.3,0.3-0.7,0.4-1.1c0.1-0.1,0.1-0.3,0.1-0.5c0-0.1,0.1-0.3,0.2-0.8   c0-0.1,0.1-0.3,0.1-0.4c0-0.1,0.1-0.1,0.2,0c0.3,0.2,0.1-0.4,0.2-0.6s0-0.6,0.2-0.6c0-0.2,0-0.4,0-0.6c0-0.1,0-0.2,0-0.2   c-0.1-0.1,0-0.2-0.1-0.5s-0.2-0.3-0.3-0.5c-0.3-0.2-0.3-0.4-0.4-0.6c-0.4-0.2-0.1-0.3-0.5-0.5c-0.2-0.1-0.2-0.2-0.3-0.3   s-0.2-0.2-0.6-0.3s-0.3-0.3-0.5-0.4c-0.3-0.2-0.5-0.4-0.9-0.5c-0.2,0-0.3-0.1-0.4-0.3c-0.1-0.1-0.2-0.1-0.2-0.1l-0.7-0.2   c-0.5-0.1-1-0.3-1.4-0.6l-0.3-0.1c0,0,0,0,0,0.1s-0.1,0-0.2,0s0-0.1,0-0.1L79,83.9L78.9,84c0,0,0,0.1,0,0.2l-0.1-0.1   c-0.1,0-0.1-0.1-0.1-0.2c-0.1-0.1-0.1-0.1-0.2-0.2L78,83.6c-0.3,0-0.5-0.1-0.8-0.2c-0.1-0.1-0.2-0.1-0.3-0.1   c-0.2,0.1-0.5,0-0.7-0.1C76.1,83.1,76,83,75.9,83c-0.1-0.1-0.2-0.1-0.2-0.1c-0.1,0.1-0.2,0.1-0.3,0c-0.2-0.1-0.4-0.2-0.7-0.1   c0.1,0.1,0.2,0.1,0.3,0.2l-0.3-0.1c-0.1,0-0.1,0-0.3,0.1c0,0.1,0,0.1,0,0.2c0,0.1-0.1,0.1-0.2,0.1s-0.1,0-0.4,0   c0-0.1,0.1-0.1,0.1-0.2l0.2-0.2c0.1,0,0.1-0.1,0.3,0.1c0-0.1,0.1-0.2,0.2-0.2c-0.2,0-0.2-0.2-0.3-0.3c0,0-0.1-0.1,0-0.1   c0,0,0,0,0,0c0.1-0.1,0.2-0.1,0.3-0.1l-0.1-0.2c0,0-0.1,0-0.1-0.1v-0.1c0-0.1-0.1-0.2-0.2-0.3c0,0,0,0.1,0,0.1c0,0.1-0.1,0.1-0.2,0   c-0.1,0.1-0.1,0.1-0.2,0.2s0-0.1-0.1-0.2s-0.1,0-0.2-0.1l0,0l0.2,0.4c0,0.2,0,0.3-0.1,0.2s-0.2-0.3-0.3-0.6c-0.3,0-0.6,0-0.8-0.1   c-0.1,0-0.1,0-0.2,0c-0.1,0-0.3-0.1-0.4-0.1c0-0.1-0.2,0-0.3-0.1s0,0.2-0.2,0.2s0.1,0.1,0.3,0c0,0,0.1-0.1,0.1-0.1   c0,0.1-0.1,0.2-0.1,0.2H72c0,0.1,0,0.2-0.1,0.2s0,0,0,0.2c0.1,0,0.2,0.1,0.4,0.1c0,0.2-0.2,0-0.3,0.1s-0.1,0-0.4-0.1L71.3,82   c-0.1,0-0.2,0-0.3,0c0,0,0,0-0.2-0.1s-0.2,0.1-0.2,0c-0.1-0.1-0.2-0.1-0.2-0.1l-5.6-1.2l3.9-5l0,0c0,0,0.1-0.1,0.1-0.1   c0.1,0,0.1,0,0.2-0.2c0-0.1,0-0.2,0.1-0.3c0,0,0-0.1,0-0.1h0.2c0-0.1,0-0.2,0.1-0.2s0.1-0.1,0.2,0h0.1l-0.1-0.2c0,0,0-0.1,0-0.3   h0.2h0.2c0,0,0,0,0.1-0.2s0.2-0.1,0.2-0.3s0.2-0.1,0.2-0.3s0.1-0.1,0.1-0.1s0.1,0.1,0.2,0.1c-0.1-0.3-0.1-0.7-0.1-1   c-0.1-0.2-0.1-0.4-0.1-0.6c-0.1-0.3-0.1-0.5-0.1-0.8v-0.3l0.5-0.5c0.3-0.4,0.7-0.7,1.1-1c-0.4,0.5-0.9,0.9-1.3,1.4l-0.1,0.1   l0.3,1.3c0,0.1,0,0.2,0.2,0.1l0.1,0.4c0,0,0,0,0.1,0s0,0.1-0.1,0v0.1l0,0c0.1-0.1,0.1-0.1,0.2-0.2c0-0.1-0.1-0.1,0.1-0.2   c0-0.2,0.1-0.2,0.2-0.3c0-0.1,0-0.1,0-0.2c0-0.2,0-0.6-0.1-1.1l0.2-0.2l-0.1-0.1h0.2c0-0.1,0-0.1,0-0.2c0.1,0,0.2-0.1,0.2-0.1l0,0   c0,0,0.1-0.2,0.3-0.5l0,0l0,0l0,0c0.1-0.3,0.2-0.6,0.3-0.9c0-0.2,0.2-0.4,0-0.3s-0.4,0.2,0.2-0.5c0.1-0.1,0.2-0.2,0.9-1.2   c0.4-0.4,0.7-0.7,0.1,0.4c-0.7,0.8-0.7,0.8-0.6,1c0.3-0.3,0.6-0.7,0.9-0.9c1.2-1.1,2.2-2.4,3.1-3.8c0.3-0.4,0.5-0.6,0.6-0.6   s0.8-0.8-0.3,0.9c0,0.2,0.3-0.2,0.2,0c-0.4,0.6-0.9,1.1-1.4,1.5c-0.3,0.2-0.7,0.6-1.5,1.7c-0.2,0.3,0.3,0-0.4,0.8   c0-0.1-0.2,0-0.4,0.2c-0.2,0.6-0.5,1.1-0.9,1.5v0.1c0,0,0,0.1,0,0.2L73,69.5l-0.4,0.4c-0.2,0.2-0.3,0.3-0.5,0.6c0,0,0,0.1,0.1,0.1   c-0.1,0.1-0.2,0.1-0.2,0.1l-0.2,0.2l0,0c0,0.2,0.1,0.4,0.2,0.5c0-0.1,0-0.2,0-0.5l0.4-0.4L73,70c0.1-0.1,0.3-0.2,0.5-0.3l-0.1-0.2   c0-0.1,0-0.2,0-0.3c0,0,0,0,0.1,0c0-0.1,0.1-0.2,0.2-0.3l0.2,0.1c0,0,0,0.1,0.1,0.3c0.2-0.4,0.5-0.9,0.8-1.3   c0.3-0.6,0.7-1.1,1.2-1.6c0.3-0.4,0.6-0.7,1.1-1c0.5-0.8,1.1-1.5,1.9-2l0.1-0.1l0,0v-0.1c0,0,0-0.1,0-0.1c0-0.1-0.1-0.2-0.1-0.3   c-0.1,0-0.1,0.1-0.2-0.1c0,0,0,0,0.2-0.1s-0.2-0.3,0.2-0.2c0,0,0-0.1,0.1-0.1c0-0.1,0-0.2,0-0.2c0-0.2,0.2-0.2,0.4-0.4   c0-0.1,0-0.2,0.2-0.2s0.3,0.1,0.3,0.3s-0.3,0.2-0.3,0.3c-0.1,0.1-0.2,0.1-0.3,0.1c0,0-0.1,0-0.3,0.2c0.3,0.2,0.4,0.1,0.6-0.2   c0.1-0.2,0.2-0.3,0.4-0.4c0.1-0.1,0.2-0.2,0.3-0.4s0.2-0.1,0.2-0.2l0.1-0.1c0.1-0.1,0.2-0.2-0.3-0.1c-0.1,0-0.2,0-0.3,0   c0-0.1,0.4-0.2,0.7-0.4c0.4,0,0.7-0.2,1-0.5c-0.4,0.1-0.7,0.2-1.1,0.3c-0.1,0-0.1,0,0.2-0.2c0.1,0,0.2-0.1,0.4-0.1   c0.3-0.1,0.6-0.2,0.8-0.3c0.1-0.1,0.1-0.1,0-0.1H82l-0.3,0.1l-0.3,0.2c-0.2,0.1-0.4,0.1-0.6,0.2h-0.1c0.2-0.1,0.3-0.2,0.3-0.2   l0.6-0.2c0.3-0.1,0.5-0.2,0.8-0.3c-0.1,0-0.3,0-0.4,0c-0.2,0.1-0.3,0.1-0.2,0s0,0,0.3-0.2c0,0-0.1,0.1,0.2,0   c0.3-0.1,0.6-0.2,0.9-0.3l-0.7,0.2c-0.2,0.1,0.3,0,0.6,0l0.3-0.1c0.1,0,0.3-0.1,0.6-0.2l0.2-0.1h0.2c0.2,0,0.3-0.1,0.1,0.1   c0.3-0.1,0.6-0.2,0.8-0.3c0,0,0-0.1,0-0.1c-0.1,0-0.2,0.1-0.4,0.1l-0.6,0.2l0.7-0.3c-0.3,0-0.5,0-0.8,0.1c-0.3,0.1-0.6,0.2-0.9,0.3   c-0.3,0.1-0.5,0.2-0.8,0.3c0,0,0.2-0.1-0.1-0.1s-0.3,0.1,0-0.2l0.5-0.3c0.1-0.1,0.2-0.1,0.1-0.2c0.1-0.1-0.1-0.1-0.3-0.1   c-0.5,0.1-1,0.3-1.4,0.5c-0.2,0.1-0.4,0.2-0.6,0.2c-0.3,0.2-0.6,0.3-0.9,0.5c0,0-0.1,0,0-0.1h-0.2h-0.2c-0.1,0.1-0.3,0.1-0.4,0.1   c-0.3,0.2-0.3,0.1-0.3,0c0.3-0.3,0.3-0.3-0.1-0.2c-0.1,0-0.1,0-0.1-0.1l0.2-0.2c0.1,0,0,0.1,1.2-0.3c0.2,0,0.3-0.1,0.4-0.2   c-0.1,0-0.2,0-0.3,0c-0.4,0-0.2-0.2,0-0.5c-0.2,0.3-0.5,0.4-0.9,0.4c-0.1,0.1-0.3,0.3-0.4,0.3c-0.1,0,0-0.1-0.1-0.4   c-0.2,0-0.3,0-0.5,0c-0.1,0-0.1,0.1-0.5,0.5c0.1,0,0.1,0,0.2,0c0,0,0,0.1-0.2,0.3c-0.1,0.1-0.1,0.3-0.2,0.4c-0.1,0-0.1,0-0.2,0   c-0.3,0-0.5,0-0.8,0.1c0.5,0,0.7,0.2,0.3,0.6c-0.2,0.1-0.5,0-0.6,0.2c0.1,0.1,0.3,0.1-0.3,0.3c0.1,0,0,0.1-0.9,0.1   c-0.1,0-0.2,0-0.2-0.4c-0.1,0,0-0.1-0.2-0.4c-0.3,0.1-0.6,0.1-0.9,0c-0.3,0.1-0.5,0-1.2,0.2c0,0.1,0.4,0,1.3,0.1   c0.2,0,0.3,0-0.4,0.4c-0.1-0.1-0.2,0-0.6,0c-0.4,0.1-0.7,0.1-1.1,0c-0.1-0.1-0.3-0.1-1.3-0.1c0.3-0.2,0.3-0.2,0.7-0.1   c0.2-0.1,0.3-0.2,0.4-0.3l0,0c-0.1,0-0.1,0,0-0.1c-0.1-0.1-0.2-0.2-0.3-0.3c-0.2,0-0.4-0.1-0.5-0.3c0.3,0,0.2-0.2,0.9-0.1   c0.2,0,0.5,0.1,0.7,0.3c0.4-0.2,0.8-0.3,1.2-0.3c0.1-0.1,0.1-0.1,0.2-0.4c0,0-0.1,0,0.1-0.2c-0.1-0.1,0.2-0.2,0.7-0.4   c0.5,0,0.2,0.1,0.1,0.2s0.4,0.1,0.9,0.1c-0.1-0.2,0.3-0.2,0.7-0.3c0.2,0.2-0.7,0.4-0.1,0.6c0.2-0.2,0.4-0.4,0.7-0.6   c0-0.1-0.1-0.3-0.2-0.4c0.3,0,0.7-0.1-0.1-0.2c-0.5,0-1,0-1.5-0.1c-0.4-0.1-0.7-0.1-1.1,0c-0.1,0.1-0.2,0.2-0.4,0.3h-0.9   c0.1-0.2,0.7-0.1,0.5-0.3c-0.6-0.1-1.1-0.1-1.7-0.1c-0.2,0-0.4,0-0.6,0c-0.3,0-0.6,0-0.9,0.1c-0.2-0.1-0.6,0-0.8-0.1h-0.6   c-0.6,0.1-1.2,0.3-1.9,0.3c-0.2,0-0.3-0.1-0.4-0.1c-0.3,0.1-0.4,0.2-0.1,0.2s0.3,0,0.7,0.1h0.5c-0.2,0.2-0.5,0.3-0.7,0.3   c0,0,0.1-0.1-0.6-0.1c-0.3,0.1-0.7,0.2-1,0.2c0.4-0.2,0.1-0.3,0.3-0.6c0.2,0,0.4-0.1,0.6-0.3c-0.5,0-0.9,0-1.4,0   c-0.1,0.2,0.4,0,0.6,0.1c-0.1,0.1-0.3,0.2-0.5,0.2c-0.1-0.1-0.3-0.1-0.8,0.1c-0.3,0.2-0.5,0.3-0.8,0.3c-0.1,0.2-0.4,0.3-0.9,0.4   c-0.8,0.2-1.6,0.2-2.4,0.1c-0.2,0-0.5,0-0.7,0c-0.5,0.1-1,0-1.5-0.1c0-0.1-0.4,0-0.4-0.1s-0.2,0-0.8,0.2c-0.2,0.2-0.5,0.2-0.8,0.2   c-0.1,0-0.1,0-0.2-0.3s0-0.2,1.1-0.5c0.1,0.1,0.3,0.1,0.4,0.2c0.3-0.1,0.6-0.2,0.9-0.3c0.2-0.1,0.3-0.2,0.4-0.4   c-0.4,0.1-0.8,0.3-1,0c-0.2,0.1-0.4,0.1-0.4-0.1c0.2,0,0.3-0.1,0.4-0.2c0-0.1-0.2-0.2-0.1-0.3l-0.7,0.2c-0.2,0.1-0.4,0.1-0.6,0   c-0.2,0-0.4,0-0.6-0.1c-0.3,0-0.7,0-1-0.1V58h0.1H54v0.6c0.2-0.1,0.4-0.2,0.9-0.4c0.1-0.1,0.3-0.2,0.5-0.2c0.2,0.1,0,0.2-0.4,0.3   c-0.2,0.1-0.4,0.2-0.5,0.4c0.1,0.1,0.1,0.2-0.1,0.4H54L54.1,48.5z M107,50.5c-0.2,0.2-0.5,0.4-0.8,0.6c-0.6,0.5-1.1,1-1.5,1.7   c0.1-0.1,0.3-0.1,0.4-0.1c0,0.1,0,0.2-0.2,0.6s-0.3,0.3-0.6,0.2c-0.2,0.2-0.4,0.3-0.6,0.5c0.1-0.2,0.4-0.5,0.2-0.5   c-0.1,0-0.1,0-0.7,0.4c-0.2,0.3-0.6,0.6-0.6,0.9c0.2-0.1,0.3-0.1-0.6,1c-0.1,0.4-0.1,0.4-0.3-0.2c-0.6,0.6-1.1,1.1-1.7,1.8   c0.2,0.1-0.1,0.5-0.6,1c-0.1,0,0.1-0.3,0.2-0.7c-0.3,0.2-0.6,0.6-1.7,1.6c-0.6,0.8-1.3,1.5-2,2.1c-0.2,0.3-0.4,0.5-0.6,0.8   c-0.4,0.2-0.7,0.5-0.9,0.8c-0.2,0.3-0.2,0.4,0.1,0.5C94.3,63.8,94,64,93.7,64c-0.1,0.1-0.1,0,0.4-0.8c-0.2-0.2,0.4-1,1-1.7   c1.1-1.3,2.3-2.5,3.4-3.7c0.5-0.5,0.9-1,1.4-1.5c2-2.1,4-4,6.1-6l0.8-0.8v-0.3c-1.6-0.1-3.3,0-4.9,0.1c0.3,0.1-0.3,0.2-1.6,0.4   c-0.7,0-0.7-0.1-1.5-0.1c0.7-0.2,1.5-0.3,2.2-0.3c0.3-0.2,0.7-0.3,1-0.4c0-0.1-0.5-0.1-1.7,0C99.9,49,99.2,49,98.6,49   c-0.9,0-1.6,0-1.5-0.2c-0.4,0-0.7,0-1.1-0.1c-0.4,0.1-0.8,0.2-1.2,0.2c-0.4,0-0.1-0.1,1-0.5c-0.3,0-0.5,0-0.8,0   c-0.3,0-0.7,0-0.3-0.1c0.8-0.1,1.7-0.2,2.5-0.1c0.4-0.1,0.8-0.1,1.2,0h1.8c1.2,0.1,2.4,0.1,3.6,0.1h1.2c0.3,0,0.3,0,0,0.2   c0.6-0.1,1.2-0.2,1.8-0.2c0,0,0.1,0,0.2,0 M104.9,47.3c0.1,0.1-0.5,0.2-1,0.3C104.2,47.4,104.6,47.3,104.9,47.3L104.9,47.3z    M102.9,47.4c0,0.1-0.4,0.2-1.2,0.2c0.4-0.1,0.9-0.2,1.3-0.1L102.9,47.4z M101.3,47.2c0,0.1-0.4,0.2-1.2,0.2   C100.5,47.3,100.9,47.2,101.3,47.2L101.3,47.2z M99.7,47.7c-0.4,0.1-0.8,0.2-0.9,0.1C99.1,47.8,99.5,47.8,99.7,47.7L99.7,47.7z    M55.3,49.5c0-0.1,0.1-0.2,0.4-0.2C55.5,49.4,55.4,49.5,55.3,49.5z M56.4,48.3c-0.3,0-0.2-0.1,0.1-0.3   C56.6,47.9,56.7,47.8,56.4,48.3z M56.4,47.2c0.1-0.2,0.2-0.2,0.5,0C56.8,47.2,56.8,47.4,56.4,47.2L56.4,47.2z M59.4,46.7   c-0.2-0.1-0.1-0.1,0.2-0.2L59.4,46.7z M60.3,46.7c0-0.1,0.1-0.1,0.2-0.1L60.3,46.7z M61.5,47.3c0.1-0.1,0.2-0.1,0.4-0.2   C61.7,47.2,61.6,47.3,61.5,47.3L61.5,47.3z M65.4,47.1c-0.3,0.2-0.6,0.1-1.3-0.1c-0.4-0.1-0.3-0.2,0.3-0.2l0.6,0.2   C65.1,47,65.7,46.9,65.4,47.1L65.4,47.1z M70.2,47.2c-0.4,0-0.4,0-0.2-0.2C70.2,47,70.3,47,70.2,47.2L70.2,47.2z M70.2,46.8   c0-0.1,0-0.1,1.1-0.1C70.9,46.8,70.6,46.9,70.2,46.8L70.2,46.8z M80.5,49.2c0-0.1,0.6-0.2,1-0.3C81.4,49.1,81.3,49.2,80.5,49.2   L80.5,49.2z M85.6,49.3C85.4,49.3,85.5,49.3,85.6,49.3C86.2,49.2,86.1,49.2,85.6,49.3L85.6,49.3z M93.1,47c0.4,0,0.9,0-0.2,0.3   C91.9,47.4,91.9,47.3,93.1,47L93.1,47z M93.6,48.4c0.1,0.1-0.4,0.2-0.8,0.3c-0.1,0.1,0.5,0.1,0.4,0.2L91.9,49   c0-0.1-0.4-0.1-1.5-0.4c0.5-0.1,0.8,0,2-0.1c0.6-0.1,0.7-0.2,1.4-0.3c0.8-0.2,1.7-0.3,2.6-0.2C96,48.1,95.2,48.1,93.6,48.4   L93.6,48.4z M102.9,49.7c0.2-0.1,0.1-0.2,0.9-0.1C102.8,49.8,102.7,49.8,102.9,49.7L102.9,49.7z M95.5,60c0.1,0,0.4-0.2,0.2,0.2   S95.3,60.5,95.5,60z M86.2,69.9C86.1,70,86,70,86.2,69.9C86.2,69.8,86.3,69.7,86.2,69.9L86.2,69.9z M86.3,72.2   c-0.1,0-0.2-0.1-0.2-0.2C86.1,72,86.2,72,86.3,72.2L86.3,72.2z M85.3,72.4C85.3,72.4,85.4,72.3,85.3,72.4c0.3-0.2,0.3-0.2,0.3-0.1   s0,0.1-0.1,0.1h-0.1L85.3,72.4C85.3,72.5,85.3,72.4,85.3,72.4L85.3,72.4z M85.5,73h-0.3C85.4,72.9,85.5,72.9,85.5,73L85.5,73z    M85.3,73.5l-0.7,0.1C84.9,73.6,85.1,73.5,85.3,73.5L85.3,73.5z M85.1,72.8c-0.1,0.1-0.2,0.1-0.2,0.1   C84.8,72.8,84.9,72.7,85.1,72.8L85.1,72.8z M84.3,73.3c0.1,0,0.1-0.1,0.4-0.3c0,0.1,0.2,0.2,0,0.3c-0.2,0.1-0.4,0.1-0.6,0.1   L84.3,73.3z M84,73.6c0.1,0,0.2,0,0.3,0S84.1,73.6,84,73.6L84,73.6z M84.2,73.9c0.2,0,0.3-0.1,0.5-0.1c0.6-0.1,0.4-0.1,0.1,0h-0.1   L84.2,73.9z M84.6,74c0,0,0,0,0.4-0.1c0.1,0,0.2-0.1,0.9-0.2c-0.3,0.1-0.6,0.2-1,0.2C84.9,74,84.8,74,84.6,74L84.6,74z M86.1,74   c-0.2,0-0.5,0-0.8,0c0.3-0.1,0.6-0.2,0.9-0.2C86.4,73.9,86.3,74,86.1,74L86.1,74z M86.3,71.5c0-0.1,0.1-0.1,0.1-0.2s0.1,0,0.2,0   C86.6,71.4,86.5,71.5,86.3,71.5L86.3,71.5z M93.1,80.7c0.1,0.2-0.1,0.1-0.3-0.2L93.1,80.7z M90.7,68.2c0.3-0.2,0.3-0.1-0.1,0.3   L90.7,68.2z M89.4,75.5c0.4,0.2,0.7,0.5,1,0.8c0.8,0.4,1.1,0.6,0.9,0.7c-0.3,0-0.6-0.2-0.8-0.3c-0.5-0.4-1-0.8-1.5-1.1   C88.6,75.3,88.8,75.3,89.4,75.5z M90.7,77.5c-0.2-0.1-0.4-0.3-0.6-0.5c0.4,0.1,0.6,0.1,1.2,0.7C91.4,77.7,91.6,77.9,90.7,77.5   L90.7,77.5z M88.2,72.7L88.2,72.7z M88.1,74.8v0.1C88,74.8,88.1,74.8,88.1,74.8L88.1,74.8z M87.2,75.7c0-0.1,0.1-0.1,0.2-0.1   s0.3,0,0-0.3l-0.3-0.1L87,75.1h0c-0.1,0-0.2,0-0.3,0c0,0,0,0.1-0.2,0.1c-0.6,0.1-0.7,0.1-0.6-0.2c0.2,0,0.3,0,0.4,0   s0.2-0.2,0.1-0.2s0.1-0.2,0.5-0.3c-0.1,0.1-0.1,0.2-0.2,0.4c0.1,0,0.2,0,0.3,0.1c0.3,0.2,0.8,0.4,1.4,0.8c0.1,0.1,0,0.2-0.1,0.2   s-0.3,0-0.1,0.2c-0.1,0.1-0.2,0.1-0.3,0.1C87.8,76,87.5,75.9,87.2,75.7L87.2,75.7z M91.9,79.6c-0.6-0.5-0.6-0.5-0.3-0.4   S92,79.5,91.9,79.6L91.9,79.6z M91.9,78.6c0.3,0.3,0,0.2-0.4,0.1l-0.5-0.4c-0.4-0.2-0.8-0.4-1.2-0.6l0.8,0.3c0-0.1-0.3-0.3-1.1-0.5   c-0.2-0.3-0.7-0.3-1.1-0.6c0-0.1-0.2-0.3,0.2-0.2s0.7,0.3,0.7,0.3c-0.6-0.3-0.2-0.3,1.1,0.5C90.8,77.8,91.3,78.2,91.9,78.6   L91.9,78.6z M94.7,64.1c-0.1-0.1-0.2-0.1,0.6-0.8C95.1,63.6,94.9,63.9,94.7,64.1L94.7,64.1z M95.9,62.3c-0.1,0.3-0.4,0.4-0.7,0.5   c0.5-0.6,0.9-0.8,1.5-1.7C97,61,97,61,95.9,62.3L95.9,62.3z M97.2,84.6c-0.1,0-0.2-0.1-0.5-0.7C96.8,83.8,96.9,83.9,97.2,84.6   L97.2,84.6z M97.1,85l-0.2-0.3C96.9,84.5,97,84.6,97.1,85L97.1,85z M97,85c0.1,0.2,0.2,0.3,0.3,0.5C97.2,85.4,97.1,85.2,97,85z    M54.8,98.7c0,0.2-0.2,0.1-0.8-0.4L54.8,98.7z M58.4,99.3c-0.1,0-0.1-0.1-0.1-0.1L58.4,99.3z M64.8,97.4c0.3,0.1,0.6,0.3,0.9,0.4   c-0.2,0-0.4-0.1-0.6-0.2c-0.4-0.2-0.7-0.4-1-0.6C64.3,97.2,64.6,97.3,64.8,97.4z M86.1,89.8c0.1,0.2,0.1,0.3-0.1,0.2   c0-0.2,0-0.4,0-0.6C86,89.5,86.1,89.6,86.1,89.8z M86,89.1c0.1,0.1,0.1,0.2,0,0.2C85.9,89.2,85.9,89.2,86,89.1L86,89.1z M86,90.2   c0,0.1,0.1,0.2,0.1,0.2C86,90.4,85.8,90.3,86,90.2L86,90.2z M85.1,92c0.1-0.1,0.1-0.2,0.1,0.2S85.1,92.6,85.1,92z M85.1,87.8   c0.2,0.1,0.3,0.2,0.4,0.3c0,0.1,0.1,0.1,0.2,0.3c-0.1,0-0.1,0.1-0.7-0.4c-0.1-0.1-0.1-0.2-0.1-0.2C85,87.8,85.1,87.9,85.1,87.8   L85.1,87.8z M84.8,89.6C84.9,89.6,84.9,89.6,84.8,89.6C84.7,89.7,84.7,89.6,84.8,89.6L84.8,89.6z M84.8,91.6c0.1,0,0.2-0.5,0.2,0   c-0.1,0.3-0.2,0.6-0.3,0.9C84.7,92.2,84.7,91.9,84.8,91.6L84.8,91.6z M84.8,93.5c0,0.1,0,0.2-0.1,0.3c-0.2-0.2-0.2-0.3-0.1-0.4   L84.8,93.5z M84.6,95.2c0.1,0.2,0,0.4-0.1,0.5c-0.2,0.2-0.2-0.1-0.1-0.5L84.6,95.2z M83.9,95.6c0,0.1-0.1,0.1,0-0.2   c-0.1,0-0.1,0.1-0.1,0.2L83.9,95.6z M83.9,93.1c0.1-0.4,0.1-0.4,0.2-0.4L83.9,93.1z M84.2,92.1c0,0.1,0,0.2-0.1,0.2L84.2,92.1z    M83.3,86c0.2,0.1,0.3,0.2,0.6,0.4s0.2,0.2-0.1,0.2c-0.3-0.2-0.4-0.2-1.6-0.5c-0.1,0-0.1-0.1,0.4,0C82.8,86,82.8,85.9,83.3,86z    M82.3,85.4c-0.1,0-0.2,0-0.3,0C81.8,85.4,82,85.4,82.3,85.4L82.3,85.4z M81.5,85.3c0.2,0.1,0.2,0.2,0.2,0.2s0,0.1-0.3,0   S80.9,85.2,81.5,85.3L81.5,85.3z M80.9,84.7c-0.3,0.1-0.7,0-1-0.2C80.2,84.6,80.5,84.6,80.9,84.7L80.9,84.7z M79.1,84.5   c0-0.1,0-0.1,0-0.2C79.1,84.3,79.2,84.4,79.1,84.5L79.1,84.5z M77.7,84.1V84C77.7,84.1,77.7,84.1,77.7,84.1L77.7,84.1z M78.5,83.9   c0.2,0.1,0.2,0.1,0.2,0.1s-0.1,0-0.2,0s-0.1,0-0.2-0.2C78.3,83.9,78.4,84,78.5,83.9L78.5,83.9z M78.8,84.3   c-0.4-0.1-0.9-0.2-1.3-0.4C78,83.9,78.4,84.1,78.8,84.3L78.8,84.3z M77.8,83.8c-0.1,0-0.1-0.1-0.2-0.1   C77.7,83.7,77.8,83.7,77.8,83.8L77.8,83.8z M77.1,83.5c0,0,0.1,0,0.4,0.2c-0.1,0-0.2,0.2-0.4,0.1c0,0,0,0-0.2-0.3L77.1,83.5z    M77.3,98.1C77,98,76.4,98,76.3,97.8C76.7,97.8,77,97.9,77.3,98.1L77.3,98.1z M76.7,83.5c0,0.1,0,0.1-0.1,0.1S76.6,83.5,76.7,83.5   L76.7,83.5z M76.7,85.1c-0.1,0-0.1,0-0.1,0C76.6,85.1,76.6,85.1,76.7,85.1L76.7,85.1z M76.4,83.6c0.1,0.1,0.1,0.1-0.1,0.2   L76.4,83.6z M76.1,83.4L76.1,83.4c0-0.1,0-0.1,0-0.2C76.1,83.3,76.1,83.4,76.1,83.4C76.1,83.4,76.1,83.4,76.1,83.4   C76,83.6,76,83.5,76.1,83.4z M75.5,83.1c0,0,0.1,0,0.2,0s0.1,0.1-0.1,0.1c0,0,0,0.1-0.2,0.3C75.3,83.4,75.4,83.4,75.5,83.1z    M74.8,83.2c0.1,0,0.3,0,0.4-0.1c0,0.1,0,0.1-0.4,0.2C74.7,83.3,74.8,83.3,74.8,83.2z M71.7,81.4C71.7,81.4,71.7,81.3,71.7,81.4   L71.7,81.4z M72.5,82.1c0.1,0,0.1,0,0.2,0.1c-0.1,0.1-0.1,0.2-0.3,0.1C72.3,82.2,72.3,82.2,72.5,82.1z M73.3,82.9L73.3,82.9   C73.3,82.9,73.3,82.9,73.3,82.9z M73.1,81.9c0.1,0,0.1,0.1,0.2,0.1s0,0.1,0,0.2s0,0.1,0,0.2c0.1,0.1,0.2,0,0.3-0.1c0,0,0-0.1,0-0.1   c0.2-0.2,0.3-0.2,0.4,0.1c-0.1,0-0.2,0-0.2,0.1s0,0.2,0.1,0.2s0.1,0.2-0.2,0.3c0,0,0-0.1-0.1-0.3c-0.1,0-0.2,0-0.3,0   c0.1,0.1,0.2,0.3,0.2,0.4c-0.1-0.1-0.3-0.3-0.3-0.4H73c0-0.1,0-0.1,0-0.2c0,0,0-0.1,0-0.2C73,82.1,73,82,73.1,81.9L73.1,81.9z    M72.9,82.8c-0.2,0-0.2-0.1-0.3-0.1s-0.3,0-0.2-0.1c0-0.1,0.1-0.1,0.2-0.1c0,0,0,0,0,0c0.1,0.1,0.3,0.1,0.4,0.2   C73.1,82.7,73.1,82.8,72.9,82.8L72.9,82.8z M72,81.4C72.2,81.4,72.2,81.4,72,81.4C72.1,81.5,72,81.4,72,81.4L72,81.4z M72.1,81.9   c-0.1,0,0-0.1,0.1-0.2h0.1c0.1-0.1,0.2-0.1,0.3-0.1l-0.2,0.1c0,0.1,0.1,0,0.2-0.1c0.1,0.1,0.2-0.1,0.2,0s0.1,0.1,0,0.2   s-0.2,0-0.2,0.1c0.2,0,0.1,0.1-0.2,0.1C72.4,81.9,72.4,81.9,72.1,81.9L72.1,81.9z M71.4,96.9l-0.5-0.3   C71.2,96.7,71.5,96.8,71.4,96.9L71.4,96.9z M70.7,82.1c0,0.1,0,0.1-0.2,0.1S70.6,82.2,70.7,82.1L70.7,82.1z M70.6,82   C70.6,82,70.6,82.1,70.6,82L70.6,82z M70.6,82c0,0-0.1,0.1-0.1,0.1C70.5,82,70.5,82,70.6,82z M70.6,73.3c-0.1,0-0.1-0.1-0.1-0.2   C70.6,73.2,70.6,73.2,70.6,73.3L70.6,73.3z M70.5,71.9C70.5,71.9,70.5,71.9,70.5,71.9C70.3,71.9,70.4,71.8,70.5,71.9L70.5,71.9z    M71.3,71.3L71.3,71.3C71.3,71.3,71.4,71.3,71.3,71.3L71.3,71.3z M71.2,71.3c0-0.1,0-0.2,0.2-0.2C71.3,71.2,71.3,71.3,71.2,71.3   L71.2,71.3z M71,70.9c0,0,0,0.1,0,0.1v0.2c0,0.1,0,0.2,0,0.3c0,0,0.1,0,0.1-0.1s0.1,0,0.1,0v-0.2c0.1,0,0.1,0,0.1,0s-0.1,0.1,0,0.3   c0,0,0,0.1-0.1,0.1s-0.1,0.2-0.2,0.2L71,71.5c0,0.1,0,0.2-0.1,0.1c-0.2-0.5-0.2-0.6-0.1-0.8s0.5-0.6,0.7-0.6   C71.3,70.5,71.2,70.7,71,70.9L71,70.9z M79,58.9c-0.2,0.1-0.2,0.2-0.3,0.1C78.7,58.8,78.9,58.8,79,58.9L79,58.9z M76.5,64   c0.1-0.2,0.2-0.4,0.4-0.6C77,63.3,77,63.5,76.5,64z M77.8,62c-0.1,0-0.1,0-0.2-0.1l0,0C78,61.9,77.8,61.9,77.8,62z M77.8,62.1   C77.6,62,77.5,62,77.7,62S77.8,62,77.8,62.1L77.8,62.1z M77.8,61.8C77.8,61.8,77.8,61.8,77.8,61.8C77.6,61.8,77.7,61.8,77.8,61.8   L77.8,61.8z M78.1,62.4c0-0.1-0.2-0.2-0.2-0.2S78,62.2,78.1,62.4C78.1,62.2,78.1,62.3,78.1,62.4L78.1,62.4z M77.9,59.7   c0-0.1,0-0.1,0.1-0.2C78,59.6,78,59.6,77.9,59.7L77.9,59.7z M78,61.1C78.1,61.1,78.1,61.1,78,61.1C77.8,61.3,77.9,61.2,78,61.1z    M78,62.1C78,62.1,77.9,62.1,78,62.1C78.1,62.1,78.3,62.2,78,62.1L78,62.1z M78.1,62c0.1,0,0.2,0,0.2,0.1   C78.3,62.1,78.2,62.1,78.1,62L78.1,62z M78.1,61.2l0.1-0.1C78,61.2,78.1,61.2,78.1,61.2L78.1,61.2z M78.3,61.6   C78.4,61.6,78.3,61.6,78.3,61.6S78.2,61.6,78.3,61.6L78.3,61.6z M78.5,63.2l-0.2,0.2c-0.2,0.1-0.4,0.3-0.3,0   c0.1-0.2,0.2-0.4,0.4-0.5c0,0,0.1,0,0.1,0c0,0,0,0,0,0.1v0.1C78.5,63.1,78.6,63.1,78.5,63.2L78.5,63.2z M78.5,62.2   c0,0,0,0.1-0.1,0.1S78.5,62.2,78.5,62.2L78.5,62.2z M78.5,62.1c0,0,0,0,0.2,0c0.1-0.1,0.1-0.1,0-0.1L78.5,62.1z M78.7,61.9h0.1   c0,0,0.1-0.1,0-0.1L78.7,61.9z M78.7,61.8c0.1,0,0.1,0,0.2,0c0-0.1-0.1-0.1,0-0.1L78.7,61.8z M79.4,61.5c-0.2,0-0.4,0-0.6,0   c-0.1,0-0.3,0-0.4,0h-0.3l0.1-0.1c0.1,0,0,0,0.2-0.1s0,0,0,0.1c0.2,0,0.5-0.1,0.7-0.1c0.2-0.1,0.4-0.1,0.7-0.2c0.2,0,0.2,0-0.3,0.2   c0.1,0.1,0.2,0.1,0.1,0.1L79.4,61.5z M78.4,61.4c0.1,0,0.2-0.1,0.2,0s0.1-0.1-0.1-0.1L78.4,61.4z M79.4,60.7c0.4-0.2,0.2,0,0.4-0.1   c-0.2,0.1-0.1,0.1,0.2,0H80c-0.1,0.1-0.2,0.1-0.3,0.2c-0.5,0.2-0.3,0.1-0.2,0l0,0c0,0,0.1-0.1,0.1-0.2L79.4,60.7z M79.4,61.1   c0.1-0.1,0.2-0.1,0.3-0.1c0.1,0,0.1,0-0.1,0.1c-0.3,0.1-0.5,0.2-0.8,0.3c-0.1,0,0.2-0.1,0.7-0.3L79.4,61.1z M80,61.4   c0.1,0,0.1,0-0.2,0.2c0.1-0.1,0-0.1,0.1-0.3l0.1-0.1c0.4-0.1,0.2,0,0.2,0.1L80,61.4z M80.9,60.4l-0.2,0.1c0.2,0-0.1,0.1-0.2,0.2   c-0.1,0-0.3,0.1-0.4,0.1c-0.2,0-0.4,0.1-0.6,0.1l1-0.3c0.2-0.1,0.3-0.3,0.5-0.4L80.9,60.4z M81,59.5c0.1,0,0.3,0,0.4-0.1   c-0.1,0.1-0.1,0.1,0,0.1c-0.2,0.1-0.4,0.2-0.6,0.2c0.2-0.1-0.1,0-0.2-0.1s-0.1-0.1,0.4-0.3L81,59.5z M79.8,60.2   c0.1,0,0.2-0.1,0.1,0s-0.2,0,0-0.1L79.8,60.2z M79.4,60.6c0.2-0.1,0.4-0.2,0.5-0.4c0.1-0.1,0.3-0.1,0.5-0.2c0.2-0.1,0,0,0.3,0   c-0.6,0.2-1,0.5-1.4,0.6L78.7,61c0-0.1,0.3-0.2,0.8-0.5L79.4,60.6z M79,61l-0.6,0.2C78.4,61.2,78.5,61.2,79,61z M78.7,61   c-0.1,0.1-0.2,0.1-0.2,0.1c-0.1,0-0.1,0-0.1,0s-0.1,0.1,0.1-0.1S78.8,61,78.7,61L78.7,61z M78.7,60c-0.1,0.1-0.1,0.1-0.2,0.1   C78.6,60.1,78.6,60,78.7,60L78.7,60z M78.5,61.1c0,0,0,0-0.2,0.1L78.5,61.1z M78.4,61.1C78.2,61.2,78.2,61.2,78.4,61.1   C78.4,61,78.4,61,78.4,61.1L78.4,61.1z M78.4,59.9c0,0.1-0.1,0.1-0.1,0.1c0,0,0,0,0,0L78.4,59.9z M78.2,58.8c0,0.1,0,0.1-0.2,0.1   C78.1,58.8,78.1,58.8,78.2,58.8L78.2,58.8z M77.8,59.3c0-0.1,0.1-0.2,0.3-0.2c0,0,0.1,0,0.2,0s0.2,0,0.1,0.1   c-0.1,0.1-0.2,0.2-0.3,0.2c-0.1,0.1-0.2,0.2-0.3,0.2S77.6,59.5,77.8,59.3L77.8,59.3z M77.9,61.5l-0.3,0.1L77.9,61.5z M75.2,61.4   c-0.4,0.1-0.5,0.1-0.6,0.1c-0.1,0-0.3,0-0.4-0.1L75.2,61.4z M73.9,66.1c0.5-0.6,1-1.1,1.6-1.7l0.7-0.7c0.4-0.5,0.8-0.8,1.3-1.4   c0.2-0.2,0.1-0.1,0.2-0.2s0,0,0,0l0,0l0,0c0,0,0,0-0.1,0.1c-0.3,0.4-0.7,0.6-1.1,1.2c-0.3,0.3-0.6,0.7-0.8,1.1   c-0.3,0.5-0.7,0.9-1.1,1.3c-0.2,0.2-0.4,0.4-0.8,0.7C73.1,67.4,73.6,66.7,73.9,66.1L73.9,66.1z M72,70.2c0-0.1,0-0.2,0.1-0.2   C72.1,70.1,72.1,70.2,72,70.2z M72.2,70.1C72.2,70,72.2,70,72.2,70.1C72.2,70,72.2,70.1,72.2,70.1L72.2,70.1z M72.3,61.4   c-0.2,0.1-0.5,0.1-0.7,0H72.3z M70.7,61.4c0.2,0,0.5,0,0,0.1C70.6,61.5,70.6,61.5,70.7,61.4L70.7,61.4z M75.6,58.4   c-0.1,0.1-0.3,0.1-0.5,0.1C75.3,58.4,75.4,58.4,75.6,58.4L75.6,58.4z M74.9,58.1c0.2,0.1,0.1,0.3-0.4,0.4   C74.3,58.4,74.4,58.4,74.9,58.1L74.9,58.1z M73.2,59.3c-0.1,0-0.1-0.1,0-0.1S73.3,59.3,73.2,59.3L73.2,59.3z M73.2,58.7   c0.2,0,0.3,0,0.3,0.1C72.9,58.9,72.8,59,73.2,58.7L73.2,58.7z M72.2,58.3c0.2,0.1-0.3,0.2-0.4,0.3c-0.1,0-0.2-0.1-0.3-0.2   C71.7,58.3,71.9,58.3,72.2,58.3L72.2,58.3z M72.4,59.2c0.1,0.1-0.2,0.2-0.8,0.3c-0.1,0-0.3,0-0.3-0.1   C71.5,59.4,71.8,59.5,72.4,59.2L72.4,59.2z M71.2,58.3C71.4,58.3,71.3,58.3,71.2,58.3C71.1,58.4,71,58.4,71.2,58.3L71.2,58.3z    M70.7,59.3l-0.2,0.2C70.3,59.5,70.4,59.5,70.7,59.3L70.7,59.3z M69.9,73.5c0,0.1,0,0.2,0,0.2C69.9,73.7,69.9,73.6,69.9,73.5   L69.9,73.5z M69.9,72.5C69.9,72.4,69.9,72.4,69.9,72.5L69.9,72.5z M69.9,72.2c0,0,0.1,0.1,0.1,0.1S70,72.2,69.9,72.2L69.9,72.2z    M70.1,71.6c0-0.1,0-0.2,0-0.2C70.2,71.4,70.2,71.5,70.1,71.6L70.1,71.6z M70.3,72.3c-0.1,0-0.1-0.1-0.1-0.2   C70.3,72.1,70.3,72.2,70.3,72.3L70.3,72.3z M69.4,61.1c0-0.1-0.4,0,0.2-0.2l0.6-0.1C70.2,61,70.1,61.1,69.4,61.1L69.4,61.1z    M70,58.4c0.1,0,0,0.1-0.2,0.1L70,58.4z M70,60c-0.1,0-0.2,0.1-0.5,0C69.7,60,70.2,59.8,70,60L70,60z M69.4,59.3l0.1-0.1   C69.7,59.3,69.7,59.3,69.4,59.3L69.4,59.3z M69.6,58.3c-0.1,0.1-0.3,0.1-0.5,0.2C69.1,58.5,69.1,58.5,69.6,58.3L69.6,58.3z    M69.2,58.6c0.2,0,0.3,0,0.5,0.2c-0.2,0-0.4,0.1-0.6,0.1C69,58.7,69.1,58.7,69.2,58.6L69.2,58.6z M69.1,74.4c0.1,0.1,0.1,0.1,0,0.3   s-0.1,0-0.2,0S69,74.6,69.1,74.4C69.1,74.3,69,74.4,69.1,74.4L69.1,74.4z M68.6,74.9C68.6,74.9,68.6,74.9,68.6,74.9   C68.8,75,68.7,75,68.6,74.9L68.6,74.9z M68.7,74.8c0,0,0-0.1,0.1,0.1C68.8,75,68.8,74.9,68.7,74.8L68.7,74.8z M69,59.5   c-0.1,0.1-0.3,0.1-0.4,0.1C68.7,59.5,68.9,59.5,69,59.5z M68.7,60.1c-0.1,0.1-0.1,0.2-0.5,0.3C68.2,60.2,68.2,60.2,68.7,60.1   L68.7,60.1z M68,58.3c0.3,0,0.4,0,0.2,0.2c0,0.1,0,0.3,0,0.4c-0.1,0-0.2,0-0.5-0.2C67.7,58.7,67.8,58.6,68,58.3z M68,59.5   c-0.1,0,0-0.1,0-0.2S68,59.4,68,59.5L68,59.5z M68.4,61c-0.2,0.1-0.5,0.1-0.7,0.1C67.6,61.1,67.7,61,68.4,61z M62.8,97   c0,0.1-0.2,0-0.3,0c-0.2-0.1-0.5-0.2-0.7-0.3c0,0.1-0.1,0.2,0.4,0.6c-0.6-0.2-0.9-0.4-0.9-0.6s-0.1-0.3-0.3-0.5s0-0.1,0.2-0.1   c0.3,0.2,0.6,0.3,0.9,0.4C62.3,96.7,62.5,96.9,62.8,97z M60.8,94.7c0.2,0.1,0.3,0.2,0.4,0.3L60.8,94.7z M64.7,61c0.2,0,0.3,0,0.5,0   c0.1,0,0.3,0,0.4,0.1C65.5,61.1,65.4,61.2,64.7,61z M64.9,59.1c0.1,0,0,0-0.1,0.2C64.5,59.2,64.4,59.2,64.9,59.1L64.9,59.1z    M64.3,59.5c-0.1,0.1-0.3,0.1-0.4,0.1C64,59.5,64.2,59.4,64.3,59.5L64.3,59.5z M63.3,59.4c0.1,0.1,0,0.1-0.6,0.2   C62.7,59.5,62.8,59.5,63.3,59.4L63.3,59.4z M60.5,59.8c-0.1,0-0.3,0.1-0.4,0.1C60.2,59.8,60.4,59.8,60.5,59.8L60.5,59.8z    M59.4,60.5c0.4,0,0.8-0.2,1-0.5c0.4-0.1,0.5,0,0.4,0.2c0.5-0.1,0.9-0.2,1.4-0.3c-0.1,0.1-0.3,0.2,0.4,0.4c0-0.1,0-0.1,0.2-0.4   c0.5,0,0.9-0.1,1.4-0.1c0.3,0.1,0.6,0.1,0.8,0c0.2-0.1,0.3,0,0.4,0.2s-0.1,0.2-0.4,0.3c-0.3,0.1-0.6,0.1-0.9,0.1   c0-0.1,0.1-0.1,0.5-0.3c-0.4,0.1-0.7,0.2-1,0.3l0.4,0.1c0.1,0.1-0.2,0.2-0.4,0.3s-0.3,0.2,0.1,0.2c-0.4,0.1-0.8,0.1-1.2,0.1   c-0.6,0.1-0.6-0.1-0.5-0.3c-0.3,0-0.5,0-0.8-0.1c-0.2,0-0.5,0-0.6,0.2c-0.4,0.2-0.5,0.2-0.8,0.1L59,61c0.3-0.1,0.5-0.2,0.8-0.3   c-0.2,0-0.5,0-0.7-0.1c-0.2,0-0.5,0.1-0.7,0.1c-0.3,0-0.2-0.1-0.7-0.3C58.2,60.3,58.8,60.4,59.4,60.5L59.4,60.5z M55.2,61   c0.3-0.1,0.6-0.1,1,0C55.5,61.1,55.3,61.1,55.2,61L55.2,61z M56,60.7c0.2-0.2,0.5-0.4,0.8-0.5C57,60.2,56.7,60.3,56,60.7L56,60.7z    M56.4,59.8l0.5,0.1c-0.5,0.1-0.9,0.3-1.3,0.5c-0.3,0.1-0.4,0.2-0.8,0.2c0.4-0.1,0.4-0.2,0.1-0.3C54.9,60.2,55,60.1,56.4,59.8   L56.4,59.8z M54.8,60c-0.2,0.1-0.5,0.2-0.7,0.2C54.3,60.1,54.6,60,54.8,60z M47.1,91.4C47,91.3,47,91.2,47.1,91.4   C47.3,91.5,47.2,91.6,47.1,91.4z M50.5,92.8l0.3,0.3C50.5,93,50.5,92.9,50.5,92.8z M51.8,96.3c0.1-0.1,0-0.2,0-0.3   c0.3,0.1,0.5,0.3,0.7,0.5c0.3,0.5,0.6,0.9,1.1,1.3c0.1,0.1,0,0.2-0.2,0.2C52.7,97.4,52.2,96.9,51.8,96.3z M58.2,103.7   c-0.3-0.2-0.4-0.3,0-0.2c0.2,0.1,0.5,0.3,0.7,0.4C58.7,103.8,58.5,103.8,58.2,103.7z M67.6,108.5c-0.4-0.1-0.7-0.2-1-0.4   C67,108.1,67.3,108.3,67.6,108.5z M65.7,107.5c0.1,0.1,0.1,0.1-0.2,0.1S65.5,107.5,65.7,107.5L65.7,107.5z M59.9,103.9   C59.8,103.8,59.7,103.7,59.9,103.9C60,103.9,60,103.9,59.9,103.9L59.9,103.9z M61.4,106.3c-0.1-0.1-0.1-0.1-0.1-0.1   S61.6,106.3,61.4,106.3L61.4,106.3z M63.6,107.5c-0.2,0-0.4-0.1-0.5-0.2C63.3,107.3,63.4,107.4,63.6,107.5L63.6,107.5z M63.6,107.7   c0.5,0.2,1,0.4,1.4,0.7C64.5,108.2,64,107.9,63.6,107.7L63.6,107.7z M68.2,109.5l-0.8-0.4c-0.5-0.2-0.7-0.2-0.9-0.2   c-0.5-0.3-1.1-0.6-1.6-0.9c0.4,0.1,0.4,0,0.9,0.2c0.2,0,0.5,0,0.4-0.1c0.7,0.4,1.2,0.7,1.3,1C68.5,109.4,68.5,109.4,68.2,109.5   L68.2,109.5z M74.2,110.2c0.2,0.1,0,0.1-1.1-0.1C73.4,110.2,73.8,110.2,74.2,110.2L74.2,110.2z M73.4,111   C73.3,111,73.1,110.9,73.4,111C73.7,110.9,73.4,111,73.4,111L73.4,111z M71,110c-0.3-0.1-0.7-0.1-0.1-0.1l0.8,0.1   C71.5,110.1,71.2,110,71,110z M72.4,109.9c-0.2,0-0.3,0-0.5-0.1C71.8,109.8,72,109.8,72.4,109.9L72.4,109.9z M73.8,111.3   c-0.6,0.1-1.2-0.1-1.6-0.4C72.7,110.9,73.3,111.1,73.8,111.3L73.8,111.3z M74.3,112c-0.1-0.1-0.3-0.2-0.7-0.2   c-0.5,0-0.9-0.1-1.3-0.3c0.5,0,1.1,0.1,1.6,0.2c0.4,0,0.8,0.1,1.1,0.2C74.8,112,74.5,112,74.3,112L74.3,112z M76.5,111.7   c-0.3,0-0.6-0.1-0.9-0.1c-1,0-0.7-0.2-0.6-0.2l-1-0.1c0-0.1-0.6-0.2-0.6-0.3c0.5,0.1,1.1,0.2,1.6,0c0.1,0.1,0.7,0,0.7,0.1   c0.7,0,1.4,0.1,2.1,0.2C77.6,111.4,77.5,111.5,76.5,111.7L76.5,111.7z M81.7,111.8c0.3,0,0.3,0,0.4,0   C81.8,111.9,81.6,111.9,81.7,111.8L81.7,111.8z M82.7,110.2c-0.2,0.1-0.4,0.1-0.5,0C82.7,110.1,83.2,110,82.7,110.2L82.7,110.2z    M83.6,110c0.2-0.2,0.5-0.3,0.9-0.3C83.7,110.1,83.6,110,83.6,110L83.6,110z M84.7,111.2c-0.2,0,0.2-0.3,0.2-0.4   C85.1,111,84.9,111.1,84.7,111.2L84.7,111.2z M88.4,107.8c0.4-0.2,0.3,0-0.4,0.6C88.1,108.1,88.3,108,88.4,107.8L88.4,107.8z    M87.1,110.5c-0.2,0,0-0.1,0.4-0.4C87.5,110.2,87.3,110.3,87.1,110.5L87.1,110.5z M88,109.6c0.3-0.1,0.5-0.2,0.8-0.4   C88.5,109.6,88.1,109.8,88,109.6L88,109.6z M93,104c0-0.2,0.1-0.3,0.4-1.1C93.3,103.3,93.2,103.7,93,104L93,104z M96.8,96   c-0.2,0-0.2-0.2,0.1-1.4c0.1-0.9,0.2-0.7,0.3-0.5c-0.1,0.5-0.2,1-0.3,1.5C97.1,95.7,97.1,95.8,96.8,96z M97.6,92.2   c0.1-0.5,0.2-0.3,0.2,0S97.7,92.8,97.6,92.2L97.6,92.2z M97.8,91.1c0-0.2,0.1-0.1,0.1,0.1S97.8,91.2,97.8,91.1L97.8,91.1z    M100.2,59.1c-0.1,0.1,0-0.1-0.2-0.1c0.2-0.3,0.5-0.6,0.8-0.9C100.8,58.3,100.8,58.5,100.2,59.1L100.2,59.1z M106.2,52.8   c-0.3,0.3-0.7,0.9-0.9,0.8c0.2-0.2,0.3-0.5,0.4-0.7C106.5,52.1,106.7,52,106.2,52.8L106.2,52.8z"></path>
&#x9;<path fill="#f1ab00" d="M71.1,81.3c0.1,0,0.2,0,0.3,0c0-0.1-0.2-0.1-0.2-0.2c0,0,0-0.1,0-0.1c0-0.1-0.1-0.2-0.3-0.2   c0,0,0.1,0.1,0.1,0.1s0.1,0,0,0.1S71,81.3,71.1,81.3z"></path>
&#x9;<path fill="#f1ab00" d="M63.4,49.3c0.2-0.1,0.5-0.2,0.7-0.2c-0.1-0.2-0.3-0.4,0.3-0.7c-0.5,0.1-1,0.3-1.4,0.5c0.1,0.1,0,0.2-0.5,0.3   C62.8,49.1,63.1,49.1,63.4,49.3z"></path>
&#x9;<path fill="#f1ab00" d="M60.5,50.2c-0.1,0.1-0.3,0.3-0.3,0.4c0.3,0,0.7,0,1,0c-0.1-0.1-0.1-0.2,0.2-0.3c0.4-0.1,0.9-0.2,1.3-0.3   l0.5-0.4c-0.1-0.1-0.5,0-0.7,0s-0.1,0-1.1-0.3c-0.2,0.2-0.7,0.2-0.9,0.4C61,49.9,60.7,50.1,60.5,50.2z M61.8,49.8   c0.1,0,0.1,0.1-0.1,0.2S61.6,49.9,61.8,49.8z"></path>
&#x9;<path fill="#f1ab00" d="M102.5,52.8c-0.4,0.5-1,0.9-1.4,1.4c0.4-0.2,0.7-0.4,0.9-0.8c0.6-0.8,1-1,1.5-1.1c0.3-0.3,0.6-0.6,1-0.9   c-1.2,1-1.5,1.1-1.3,0.6C102.9,52.2,102.7,52.5,102.5,52.8z"></path>
&#x9;<path fill="#f1ab00" d="M94.7,82.9c-0.1,0-0.2,0-0.2,0c0.1,0.7,0.4,1.3,0.8,1.9c0-0.2-0.1-0.5-0.1-0.7c-0.3-0.6-0.2-0.4,0-0.4   c0-0.2,0.3,0.1,0.1-0.3c-0.2-0.5-0.5-1-0.8-1.4C94.2,82.2,94.8,82.8,94.7,82.9z"></path>
&#x9;<path fill="#f1ab00" d="M96.7,91.1c0.1-0.1,0.1-0.3,0-0.5C96.7,90.8,96.7,91,96.7,91.1z"></path>
&#x9;<path fill="#f1ab00" d="M54.4,97.8c0.3,0.3,0.6,0.6,0.8,0.4c-0.3-0.3-0.7-0.5-1.1-0.8C54.3,97.6,54.2,97.7,54.4,97.8z"></path>
&#x9;<path fill="#f1ab00" d="M96,83.8c-0.6-0.9-0.7-1.3-1.1-2c-0.4-0.5-0.9-1-1.2-1.5c0.2,0.2,0.4,0.5,0.3,0.5C94.7,81.7,95.4,82.7,96,83.8   z"></path>
&#x9;<path fill="#f1ab00" d="M97,88.3c0.1,0.2,0.1,0.5,0.1,0.7C97.1,88.8,97.1,88.6,97,88.3z"></path>
&#x9;<path fill="#f1ab00" d="M91.6,49.9H92C92,49.9,91.8,49.9,91.6,49.9z"></path>
&#x9;<path fill="#f1ab00" d="M90.2,65.3c0.2-0.3,0.4-0.6,0.6-0.9C90.4,64.7,90.1,65.1,90.2,65.3z"></path>
&#x9;<path fill="#f1ab00" d="M89.2,68.5c-0.1,0-0.1,0-0.2,0C89.1,68.5,89.1,68.7,89.2,68.5z"></path>
&#x9;<path fill="#f1ab00" d="M69.3,75.6L69.3,75.6C69.3,75.6,69.3,75.5,69.3,75.6z"></path>
&#x9;<path fill="#f1ab00" d="M82.5,74.4L82.5,74.4C82.5,74.5,82.6,74.4,82.5,74.4z"></path>
&#x9;<path fill="#f1ab00" d="M71.7,81.9c-0.1,0-0.1-0.1-0.1-0.1c-0.2,0-0.3,0-0.5,0c0.1,0,0.2,0.1,0.2,0.1C71.4,81.8,71.5,81.8,71.7,81.9z"></path>
&#x9;<path fill="#f1ab00" d="M84.1,74.7c-0.3-0.1-0.7-0.1-1.1-0.1c0.1,0.1,0.3,0.2,0.9,0.3C84.1,74.9,84.2,74.8,84.1,74.7z"></path>
&#x9;<path fill="#f1ab00" d="M70.7,73.5c0,0,0-0.2,0.1-0.2c0,0,0-0.1,0-0.1C70.8,73.2,70.7,73.2,70.7,73.5L70.7,73.5z"></path>
&#x9;<path fill="#f1ab00" d="M83.2,97.5c0,0,0.1-0.1,0.1-0.1L83.2,97.5z"></path>
&#x9;<path fill="#f1ab00" d="M85.6,92.5C85.6,92.6,85.6,92.6,85.6,92.5C85.6,92.6,85.6,92.6,85.6,92.5z"></path>
&#x9;<path fill="#f1ab00" d="M86.1,76.6l0.3,0.1l0.9,0.5c-0.2-0.2-0.3-0.3-0.5-0.4c-0.2-0.1-0.4-0.2-0.5-0.3c-0.1,0-0.3,0-0.4-0.1   c0,0-0.1-0.1-0.3-0.1c-0.1,0.1,0.2,0.2,0.4,0.3C86,76.5,86.1,76.5,86.1,76.6z"></path>
&#x9;<path fill="#f1ab00" d="M84.9,75.7c-0.1,0-0.3,0-0.4,0c0.2,0,0.3,0.1,0.5,0.2C84.8,75.9,84.8,75.8,84.9,75.7z"></path>
</g>
</svg>