<svg width="600" height="140" viewBox="0 0 600 140" xmlns="http://www.w3.org/2000/svg">
  <!-- Paddock Logo — Horizontal Primary -->
  <!-- Background: transparent. Place on dark background (#0c0c0c) for best result -->

  <!-- Circuit symbol -->
  <g transform="translate(10, 5) scale(0.55)">
    <path fill="none" stroke="#D4A843" stroke-width="3.5" stroke-linecap="round" stroke-linejoin="round" opacity="0.08"
      d="M50,120 L50,55 Q50,20 85,20 L140,20 Q180,20 195,45 Q210,70 195,95 L150,130 Q135,143 135,165 L135,185 Q135,210 110,210 L75,210 Q50,210 50,185 Z"/>
    <path fill="none" stroke="#D4A843" stroke-width="2.2" stroke-linecap="round" stroke-linejoin="round"
      d="M50,120 L50,55 Q50,20 85,20 L140,20 Q180,20 195,45 Q210,70 195,95 L150,130 Q135,143 135,165 L135,185 Q135,210 110,210 L75,210 Q50,210 50,185 Z"/>
    <line x1="40" y1="118" x2="60" y2="118" stroke="#D4A843" stroke-width="1.2" opacity="0.5"/>
    <line x1="40" y1="122" x2="60" y2="122" stroke="#D4A843" stroke-width="1.2" opacity="0.5"/>
    <circle cx="195" cy="70" r="3.5" fill="#D4A843" opacity="0.8"/>
    <circle cx="120" cy="20" r="5" fill="#D4A843" opacity="0.95"/>
    <circle cx="120" cy="20" r="9" fill="none" stroke="#D4A843" stroke-width="0.7" opacity="0.35"/>
  </g>

  <!-- Wordmark -->
  <text x="170" y="75" fill="#f2efe8" font-family="system-ui, -apple-system, 'Helvetica Neue', Arial, sans-serif" font-size="40" font-weight="400" letter-spacing="14">PADDOCK</text>

  <!-- Gold line -->
  <line x1="172" y1="88" x2="530" y2="88" stroke="#D4A843" stroke-width="0.4" opacity="0.35"/>

  <!-- Tagline -->
  <text x="172" y="108" fill="#6b6b5e" font-family="system-ui, -apple-system, 'Helvetica Neue', Arial, sans-serif" font-size="10" letter-spacing="5" font-weight="400">MOTO WORKSHOP</text>
</svg>
